<svg xmlns="http://www.w3.org/2000/svg" viewBox="0 0 946.3 135.34"><title>Asset 1</title><g id="Layer_2" data-name="Layer 2"><g id="Layer_1-2" data-name="Layer 1"><rect x="146.79" y="1.98" width="26.49" height="131.37"/><path d="M249.05,110.65h-4.86a43,43,0,1,1,0-86h4.86a43.16,43.16,0,0,1,36.14,19.73h26.58A65.89,65.89,0,0,0,250.32,2h-7.4a65.69,65.69,0,1,0,0,131.38h7.4a66,66,0,0,0,63.52-48.84H288.52A43.07,43.07,0,0,1,249.05,110.65Z"/><path d="M500.18,52.35h27.21a52.79,52.79,0,0,1,1.81,6.49h24.15a69.3,69.3,0,0,0-3-12.88H489.64A23,23,0,0,1,500.18,52.35Z"/><path d="M365,2.07c-1-.09-2-.09-3-.09H319.79l.09,131.37h26.58V83.79h15.59a8.88,8.88,0,0,1,3,.54c10.54,4,17.93,28.48,17.93,49h26.49c0-10.27-2.88-40.55-18.56-58C419.18,54.87,410.62,4.23,365,2.07Zm0,60.28c-1,.09-2,.18-3,.18H346.46V23.34h15.59c1,0,2,.09,3,.18C389.8,26,389.8,59.82,365,62.35Z"/><polygon points="68.21 90.29 31.36 1.98 0 1.98 0 133.35 26.49 133.35 26.49 53.79 59.65 133.35 76.86 133.35 110.02 53.79 110.02 133.35 136.51 133.35 136.51 1.98 105.06 1.98 68.21 90.29"/><path d="M486.22,0h-7.66A67.13,67.13,0,0,0,439,12.89h86.86A67.19,67.19,0,0,0,486.22,0Z"/><path d="M479.82,22.52H485a44.24,44.24,0,0,1,21.72,5.68h34.52A66.53,66.53,0,0,0,529,15.31H435.85A66,66,0,0,0,423.68,28.2H458.2A44.26,44.26,0,0,1,479.82,22.52Z"/><path d="M446.84,37H518a38.25,38.25,0,0,1,5,6.49h26.5a63.93,63.93,0,0,0-6.68-12.89H422.07a59.61,59.61,0,0,0-6.67,12.89h26.48A39.67,39.67,0,0,1,446.84,37Z"/><path d="M437.47,52.35h27.21A23.1,23.1,0,0,1,475.13,46H414.49a61.5,61.5,0,0,0-3,12.88h24.14A41.64,41.64,0,0,1,437.47,52.35Z"/><path d="M434.86,70.82h24c-.09-1-.17-2.07-.17-3.15s.08-2.16.17-3.15h-24c.09-1.08.17-2.16.36-3.24H411.16c-.18,2.16-.27,4.23-.27,6.39s.09,4.23.27,6.4h24.06C435,73,435,71.9,434.86,70.82Z"/><path d="M529.65,61.27c.17,1.08.27,2.16.35,3.24H506c.09,1,.18,2.07.18,3.15s-.09,2.16-.18,3.15h24c-.09,1.08-.18,2.16-.35,3.24h24a55.45,55.45,0,0,0,0-12.79Z"/><path d="M582.36,36.49c0-9.73,6.22-13.16,12.89-13.16s13,3.43,13,13.16h21.36C629.49,23.33,620.65,1.71,595.25,2S561,23.24,561,36.49c0,40,52.54,35.51,52.54,60.29,0,8.82-9.55,15.22-18.29,15.22s-18.21-6.39-18.21-15.22H555.69c0,22.88,13.34,36.57,39.57,36.57s39.55-13.69,39.55-36.57C634.8,57,582.36,59.92,582.36,36.49Z"/><path d="M709.69,2h-7.4a65.69,65.69,0,1,0,0,131.38h7.4A65.69,65.69,0,1,0,709.69,2Zm-1.28,108.67h-4.85a43,43,0,1,1,0-86h4.85a43,43,0,1,1,0,86Z"/><polygon points="781.59 23.34 781.59 133.36 808.08 133.36 808.08 78.3 847 78.3 847 57.03 808.08 57.03 808.08 23.34 847 23.34 847 1.98 781.4 1.98 781.59 23.34"/><polygon points="853.05 1.98 853.05 23.34 886.38 23.34 886.38 133.36 912.87 133.36 912.87 23.34 946.3 23.34 946.3 1.98 853.05 1.98"/><path d="M527.39,83H500.18a23.79,23.79,0,0,1-10.54,6.4h60.73a69.7,69.7,0,0,0,3-12.9H529.2A53.44,53.44,0,0,1,527.39,83Z"/><path d="M485,112.81h-5.13a44.3,44.3,0,0,1-21.63-5.68H423.68A69.16,69.16,0,0,0,435.84,120H529a69.17,69.17,0,0,0,12.16-12.89H506.67A44.35,44.35,0,0,1,485,112.81Z"/><path d="M478.56,135.34h7.66a67.32,67.32,0,0,0,39.65-12.9H439A67.23,67.23,0,0,0,478.56,135.34Z"/><path d="M518,98.3H446.84a38.84,38.84,0,0,1-5-6.49H415.4a59.57,59.57,0,0,0,6.66,12.89H542.8a63.67,63.67,0,0,0,6.68-12.89H523A43.07,43.07,0,0,1,518,98.3Z"/><path d="M464.68,83H437.47a41.12,41.12,0,0,1-1.8-6.49H411.52a63.09,63.09,0,0,0,3,12.88h60.65A23.42,23.42,0,0,1,464.68,83Z"/></g></g></svg>